<svg xmlns="http://www.w3.org/2000/svg" viewBox="0 0 64 64">
  <g fill="none" stroke="#e9a52b" stroke-linecap="round" stroke-width="4">
    <path d="M13 3v6M3 13h6M5.5 5.5l4.2 4.2M4.5 23l5.5-2.2" />
    <circle cx="16" cy="16" r="8" />
  </g>
  <path fill="#fff" stroke="#102134" stroke-linejoin="round" stroke-width="5.5" d="M18 7h23l15 15v33a6 6 0 0 1-6 6H18a6 6 0 0 1-6-6V13a6 6 0 0 1 6-6Z" />
  <path fill="none" stroke="#102134" stroke-linecap="round" stroke-linejoin="round" stroke-width="5.5" d="M41 8v11a4 4 0 0 0 4 4h10" />
  <path fill="#369b5b" d="M5 53.5c12.4-1.4 22.7-8.4 31.8-19.7l-6.3-5.6 20.6-3.9-3.8 20.5-6-5.2C31.4 50.5 19.5 55.9 5 56Z" />
</svg>
